<?xml version="1.0" encoding="utf-8"?>
<!-- Generator: Adobe Illustrator 19.1.0, SVG Export Plug-In . SVG Version: 6.00 Build 0)  -->
<svg version="1.1" id="Layer_1" xmlns="http://www.w3.org/2000/svg" xmlns:xlink="http://www.w3.org/1999/xlink" x="0px" y="0px"
	 viewBox="0 0 64 64" style="enable-background:new 0 0 64 64;" xml:space="preserve">
<style type="text/css">
	.st0{fill:#F89A20;}
	.st1{fill:none;stroke:#F89A20;stroke-width:6.865;stroke-miterlimit:10;}
</style>
<path class="st0" d="M37,30.3c0-2.4,0-4.9,0-7.3c0-0.5,0.1-1,0.3-1.4c0.4-1.3,1.4-2.1,2.8-2.1c1.6-0.1,3.2-0.1,4.8-0.1
	c0.3,0,0.5,0,0.5,0.3c0,0.3-0.2,0.5-0.5,0.5c-0.4,0.1-0.8,0.1-1.2,0.2c-0.9,0.1-1.2,0.4-1.2,1.3c0,5.5,0,11,0,16.5
	c0,1.4-0.1,2.8-0.8,4.1c-1.1,2.3-3,3.7-5.6,4c-1.6,0.2-3.2,0.4-4.8,0.4c-2.1,0-4.1-0.1-6.1-0.9c-2.5-1-3.9-2.8-4.5-5.4
	c-0.3-1.9-0.3-3.8-0.3-5.8c0-3,0-6,0-9c0-0.6-0.2-0.8-0.8-1c-0.3-0.1-0.5-0.1-0.8-0.2c-0.1-0.1-0.3-0.3-0.4-0.5
	c0-0.3,0.3-0.3,0.5-0.3h6.6c0.2,0,0.5,0,0.5,0.3c0,0.2-0.2,0.4-0.4,0.5c-0.3,0.1-0.8,0.1-1.1,0.2c-0.6,0.1-0.8,0.4-0.8,1
	c0,1.4,0,2.8,0,4.3c0,2.6-0.1,5.1,0,7.7c0,1,0.1,2.1,0.4,3c0.3,1.5,1.3,2.5,2.8,3.1c2.2,0.7,4.3,0.7,6.5,0c1.8-0.5,2.8-1.8,3.1-3.6
	c0.1-1,0.3-1.9,0.3-2.9C37.1,34.9,37,32.6,37,30.3"/>
<circle class="st1" cx="32" cy="32" r="26.6"/>
</svg>
